# Blender v2.74 (sub 0) OBJ File: ''
# www.blender.org
mtllib monkey-character.mtl
o handLeft
v 0.343750 7.226417 1.014836
v 0.343750 6.678105 1.031264
v -0.343750 7.175718 1.014836
v -0.343750 6.663194 1.031264
v -0.230933 6.506386 1.648007
v -0.183843 7.134833 1.432714
v 0.232517 6.508716 1.648007
v 0.183843 7.146984 1.432714
v 0.299513 4.647607 1.516372
v -0.290960 4.647607 1.516372
v 0.226067 4.811732 1.917406
v -0.217514 4.811732 1.917406
v -0.201526 3.179509 1.690365
v 0.211663 3.179509 1.690365
v 0.177558 3.305108 1.955666
v -0.167421 3.305108 1.955666
v 0.000079 6.972533 1.600514
v -0.376403 6.930964 1.317259
v 0.005068 2.875299 1.837529
v 0.376542 6.954121 1.317259
v 0.000000 7.265726 1.256335
v 0.002455 5.592918 1.267272
v 0.363383 5.678171 1.571715
v 0.002534 5.776241 1.871278
v -0.358334 5.677402 1.571715
v 0.004989 3.672745 1.552199
v 0.343293 3.784343 1.796850
v 0.004989 3.895941 2.041501
v -0.333315 3.784343 1.796850
v -0.227587 6.956485 1.529097
v 0.000792 6.528084 1.729186
v 0.227745 6.964018 1.529097
v 0.000000 7.179373 1.456648
v -0.468750 6.913491 1.023050
v -0.372606 6.467734 1.410707
v -0.269862 7.173391 1.267818
v 0.005068 3.029818 1.662830
v 0.244473 3.109138 1.828282
v 0.005068 3.188458 1.993734
v -0.234336 3.109138 1.828282
v 0.468750 6.958225 1.023050
v 0.269862 7.200076 1.267818
v 0.374071 6.475422 1.410707
v 0.000000 7.297507 1.011849
v 0.000000 6.574210 1.034251
v 0.306987 5.623126 1.342055
v 0.004276 4.617766 1.443457
v -0.302057 5.621914 1.342055
v 0.229292 5.749187 1.791968
v 0.356795 4.729670 1.716889
v -0.224223 5.748953 1.791968
v 0.004276 4.841573 1.990321
v -0.348242 4.729670 1.716889
v 0.286758 3.714645 1.616869
v -0.276779 3.714645 1.616869
v 0.219033 3.878201 1.975876
v -0.209055 3.878201 1.975876
v -0.122140 6.781934 1.644541
v 0.122773 6.783798 1.644541
v 0.110822 7.092876 1.520216
v -0.110822 7.088071 1.520216
v -0.416171 6.749635 1.198487
v -0.319719 6.748247 1.487342
v -0.284373 7.074194 1.395898
v -0.392302 7.065744 1.158342
v 0.131933 2.948950 1.749418
v 0.121163 3.029447 1.916632
v -0.111026 3.029447 1.916632
v -0.121796 2.948950 1.749418
v 0.392302 7.106005 1.158342
v 0.284373 7.092419 1.395898
v 0.320352 6.757567 1.487342
v 0.416488 6.772002 1.198487
v -0.168129 7.251695 1.139456
v -0.123736 7.210973 1.361620
v 0.123736 7.221743 1.361620
v 0.168129 7.274063 1.139456
v 0.179615 6.099904 1.164279
v 0.170658 5.112810 1.383330
v -0.163689 5.112810 1.383330
v -0.177081 6.096922 1.164279
v 0.316659 6.130595 1.617533
v 0.311120 5.257074 1.764909
v 0.360582 5.170516 1.535962
v 0.374290 6.113415 1.339637
v -0.118975 6.178472 1.779881
v -0.114227 5.314780 1.917541
v 0.121196 5.314780 1.917541
v 0.122142 6.178844 1.779881
v -0.371439 6.108942 1.339637
v -0.353613 5.170516 1.535962
v -0.304151 5.257074 1.764909
v -0.313492 6.128731 1.617533
v 0.169230 4.133870 1.520200
v 0.144049 3.329888 1.615119
v -0.133912 3.329888 1.615119
v -0.159727 4.133870 1.520200
v 0.307427 4.286038 1.869376
v 0.271880 3.464336 1.902034
v 0.306883 3.383839 1.729621
v 0.356092 4.194737 1.659871
v -0.111062 4.346906 2.009046
v -0.098910 3.518287 2.016536
v 0.109046 3.518287 2.016536
v 0.120565 4.346906 2.009046
v -0.346588 4.194737 1.659871
v -0.296746 3.383839 1.729621
v -0.261743 3.464336 1.902034
v -0.297924 4.286038 1.869376
v -0.119706 6.967052 1.582944
v -0.232763 6.769301 1.585591
v -0.120953 6.522485 1.708891
v 0.000317 6.786611 1.664190
v 0.122537 6.523417 1.708891
v 0.233396 6.773961 1.585591
v 0.119864 6.970211 1.582944
v 0.209620 7.086417 1.475869
v 0.107996 7.170489 1.448920
v 0.000000 7.098020 1.533483
v -0.107996 7.163281 1.448920
v -0.209620 7.075855 1.475869
v -0.426290 6.921458 1.175460
v -0.437500 6.776288 1.027531
v -0.388901 6.496665 1.246765
v -0.381393 6.735962 1.356179
v -0.317384 6.479555 1.546534
v -0.311661 6.943547 1.437837
v -0.225763 7.157548 1.368250
v -0.342720 7.073890 1.287617
v -0.308237 7.177490 1.146538
v -0.437500 7.053677 1.018569
v 0.005068 2.890728 1.745818
v 0.128608 3.079284 1.671856
v 0.239102 3.115893 1.748068
v 0.135594 2.933975 1.835209
v 0.216889 3.190396 1.905015
v 0.106395 3.227005 1.981228
v 0.005068 2.977221 1.924599
v -0.096258 3.227005 1.981228
v -0.206752 3.190396 1.905015
v -0.125457 2.933975 1.835209
v -0.228966 3.115893 1.748068
v -0.118471 3.079284 1.671856
v 0.426370 6.955009 1.175460
v 0.437500 7.107358 1.018569
v 0.308237 7.215514 1.146538
v 0.342720 7.101932 1.287617
v 0.225763 7.175566 1.368250
v 0.311819 6.957890 1.437837
v 0.318967 6.484215 1.546534
v 0.381947 6.751339 1.356179
v 0.390010 6.507849 1.246765
v 0.437500 6.806110 1.027531
v 0.000000 7.285005 1.137096
v -0.187500 7.258485 1.012595
v -0.147345 7.238120 1.258428
v 0.000000 7.232895 1.363559
v 0.147345 7.253860 1.258428
v 0.187500 7.288308 1.012595
v 0.001267 6.082900 1.154668
v 0.187500 6.601302 1.033505
v 0.317457 6.119541 1.217730
v 0.173433 5.602431 1.284429
v 0.301726 5.134449 1.440567
v 0.169766 4.625226 1.461686
v 0.003485 5.105597 1.364251
v -0.161213 4.625226 1.461686
v -0.294757 5.134449 1.440567
v -0.168523 5.601686 1.284429
v -0.314844 6.114695 1.217730
v -0.187500 6.595337 1.033505
v 0.368046 6.108207 1.487179
v 0.231051 6.160751 1.719001
v 0.313890 5.715339 1.692829
v 0.227533 5.293140 1.860304
v 0.308812 4.774431 1.826262
v 0.359591 5.213795 1.650436
v 0.357776 4.684908 1.607516
v 0.365693 5.647903 1.446303
v 0.001584 6.184783 1.800174
v -0.227883 6.159819 1.719001
v -0.116601 5.769402 1.851450
v -0.220564 5.293140 1.860304
v -0.112249 4.834113 1.972092
v 0.003485 5.321993 1.936620
v 0.120802 4.834113 1.972092
v 0.121669 5.769495 1.851450
v -0.364958 6.105131 1.487179
v -0.360704 5.646785 1.446303
v -0.349223 4.684908 1.607516
v -0.352622 5.213795 1.650436
v -0.300259 4.774431 1.826262
v -0.308821 5.714873 1.692829
v 0.004752 4.126262 1.502742
v 0.298185 4.156695 1.572577
v 0.162756 3.686253 1.568227
v 0.254248 3.374387 1.656937
v 0.005068 3.298877 1.601926
v -0.244111 3.374387 1.656937
v -0.152778 3.686253 1.568227
v -0.288681 4.156695 1.572577
v 0.355117 4.240388 1.764623
v 0.225188 4.324080 1.956670
v 0.298079 3.834980 1.894537
v 0.201744 3.522109 1.972807
v 0.310059 3.399927 1.816783
v 0.343228 3.745787 1.698685
v 0.004752 4.354514 2.026505
v -0.215684 4.324080 1.956670
v -0.107628 3.894513 2.024996
v -0.191607 3.522109 1.972807
v 0.005068 3.500977 2.031639
v 0.117607 3.894513 2.024996
v -0.345614 4.240388 1.764623
v -0.333250 3.745787 1.698685
v -0.299922 3.399927 1.816783
v -0.288100 3.834980 1.894537
vt 0.250000 0.250000
vt 0.250000 0.500000
vt 0.000000 0.500000
vt 0.000000 0.250000
vt 0.000000 0.000000
vt 0.250000 0.000000
vt 0.500000 0.000000
vt 0.500000 0.250000
vt 0.500000 0.500000
vt 0.750000 0.250000
vt 0.750000 0.000000
vt 1.000000 0.000000
vt 1.000000 0.250000
vt 1.000000 0.500000
vt 0.750000 0.500000
vt 0.750000 0.750000
vt 1.000000 0.750000
vt 1.000000 1.000000
vt 0.750000 1.000000
vt 0.500000 1.000000
vt 0.500000 0.750000
vt 0.250000 0.750000
vt 0.250000 1.000000
vt 0.000000 1.000000
vt 0.000000 0.750000
vn -0.323400 0.262500 0.909100
vn -0.303200 0.378000 0.874700
vn -0.594200 0.323800 0.736200
vn -0.625100 0.208500 0.752200
vn -0.641700 0.160500 0.750000
vn -0.336300 0.205900 0.919000
vn -0.001000 0.222000 0.975000
vn -0.002300 0.281500 0.959600
vn -0.005600 0.395800 0.918300
vn 0.318600 0.262500 0.910800
vn 0.334400 0.206800 0.919500
vn 0.639900 0.162300 0.751100
vn 0.620800 0.208700 0.755700
vn 0.583200 0.321100 0.746200
vn 0.291600 0.376200 0.879500
vn 0.254900 0.561700 0.787100
vn 0.505600 0.517100 0.690700
vn 0.411300 0.680200 0.606800
vn 0.225600 0.749300 0.622600
vn -0.026000 0.782400 0.622200
vn -0.013300 0.582400 0.812800
vn -0.280700 0.565600 0.775500
vn -0.272400 0.749700 0.603100
vn -0.448200 0.682800 0.577000
vn -0.528700 0.522500 0.669000
vn -0.988200 -0.116900 0.099400
vn -0.958800 0.106200 0.263400
vn -0.971500 0.061200 0.229000
vn -0.972800 -0.230700 -0.019400
vn -0.776100 -0.289000 -0.560500
vn -0.985900 -0.139800 -0.091900
vn -0.968500 0.017500 0.248400
vn -0.947500 0.047200 0.316300
vn -0.911000 0.184300 0.369000
vn -0.837600 0.134600 0.529400
vn -0.855500 0.096600 0.508700
vn -0.804600 0.251700 0.537800
vn -0.716600 0.478500 0.507500
vn -0.527900 0.721400 0.448200
vn -0.596000 0.748300 0.291300
vn -0.818100 0.451500 0.356200
vn -0.861100 0.434300 0.264400
vn -0.625500 0.756500 0.190900
vn -0.632300 0.757800 0.160900
vn -0.872700 0.427000 0.236900
vn 0.583900 -0.640000 -0.499500
vn -0.000000 -0.813500 -0.581600
vn 0.000000 -0.370100 -0.929000
vn 0.373800 -0.343200 -0.861700
vn 0.620400 -0.295600 -0.726400
vn 0.847300 -0.372600 -0.378400
vn 0.899000 -0.354400 0.257400
vn 0.645700 -0.698300 0.309100
vn -0.000000 -0.934400 0.356200
vn 0.442100 -0.391000 0.807200
vn 0.685700 -0.230100 0.690500
vn 0.530000 -0.154900 0.833700
vn 0.333400 -0.191000 0.923200
vn -0.000000 -0.213000 0.977100
vn 0.000000 -0.476200 0.879300
vn -0.442100 -0.391000 0.807200
vn -0.333400 -0.191000 0.923200
vn -0.530000 -0.154900 0.833700
vn -0.685700 -0.230100 0.690500
vn -0.899000 -0.354400 0.257400
vn -0.645700 -0.698300 0.309100
vn -0.583900 -0.640000 -0.499500
vn -0.847300 -0.372600 -0.378400
vn -0.620400 -0.295600 -0.726400
vn -0.373800 -0.343200 -0.861700
vn 0.850500 0.431600 0.300700
vn 0.956800 0.103600 0.271700
vn 0.970200 0.060000 0.234900
vn 0.863500 0.423600 0.273600
vn 0.579800 0.785500 0.216400
vn 0.575400 0.780300 0.244900
vn 0.550400 0.763000 0.339000
vn 0.804100 0.448900 0.389900
vn 0.906800 0.180800 0.380800
vn 0.698000 0.474300 0.536400
vn 0.486600 0.725800 0.486200
vn 0.796800 0.248700 0.550600
vn 0.834800 0.135200 0.533700
vn 0.854500 0.099100 0.509900
vn 0.968600 0.021000 0.247700
vn 0.946900 0.048500 0.317800
vn 0.989400 -0.107900 0.096800
vn 0.987000 -0.130300 -0.094000
vn 0.780600 -0.276300 -0.560700
vn 0.976400 -0.214800 -0.023700
vn -0.327700 0.935200 0.134100
vn -0.065400 0.989300 0.130800
vn -0.071900 0.992300 0.100500
vn -0.333300 0.937100 0.103600
vn -0.311900 0.920300 0.236200
vn -0.052600 0.971800 0.229700
vn -0.288800 0.866500 0.407000
vn -0.039800 0.914200 0.403300
vn 0.220000 0.874600 0.432100
vn 0.222800 0.937400 0.267500
vn 0.218400 0.961000 0.169900
vn 0.213800 0.966800 0.140100
vn 0.201300 -0.248700 -0.947400
vn 0.002100 -0.238200 -0.971200
vn 0.002800 -0.246100 -0.969200
vn 0.154500 -0.266500 -0.951400
vn 0.669900 -0.212200 -0.711500
vn 0.679300 -0.167900 -0.714400
vn 0.257900 -0.211100 -0.942800
vn 0.000700 -0.213900 -0.976900
vn 0.267700 -0.172200 -0.948000
vn 0.670800 -0.134200 -0.729400
vn 0.658400 -0.103000 -0.745600
vn 0.262200 -0.133000 -0.955800
vn -0.000000 -0.139500 -0.990200
vn 0.000100 -0.178200 -0.984000
vn -0.267600 -0.173300 -0.947800
vn -0.262000 -0.134100 -0.955700
vn -0.658600 -0.104700 -0.745200
vn -0.670900 -0.136700 -0.728800
vn -0.679200 -0.171500 -0.713600
vn -0.257200 -0.212500 -0.942700
vn -0.196500 -0.251200 -0.947800
vn -0.668000 -0.217600 -0.711600
vn -0.147100 -0.269400 -0.951700
vn 0.862300 0.089300 0.498500
vn 0.977600 0.026100 0.209000
vn 0.647200 0.140000 0.749300
vn 0.645200 0.120800 0.754400
vn 0.861500 0.079500 0.501600
vn 0.980100 0.025100 0.196900
vn 0.855700 0.068000 0.512900
vn 0.636400 0.100500 0.764800
vn 0.622400 0.076100 0.779000
vn 0.847100 0.053200 0.528800
vn 0.979000 0.018500 0.203000
vn 0.980200 0.022400 0.196900
vn 0.967100 -0.050600 -0.249400
vn 0.963900 -0.038700 -0.263300
vn 0.971900 -0.062500 -0.226800
vn 0.980800 -0.074900 -0.180200
vn -0.341100 0.173900 0.923800
vn -0.000300 0.187000 0.982400
vn -0.647800 0.137500 0.749300
vn -0.645200 0.118200 0.754800
vn -0.338800 0.147200 0.929300
vn -0.000100 0.157000 0.987600
vn -0.331500 0.120100 0.935800
vn -0.636000 0.098300 0.765400
vn -0.622300 0.074500 0.779200
vn -0.320800 0.088700 0.943000
vn 0.000000 0.093200 0.995600
vn 0.000000 0.127300 0.991900
vn 0.331700 0.121100 0.935600
vn 0.320900 0.089500 0.942900
vn 0.338900 0.148500 0.929000
vn 0.340400 0.175300 0.923800
vn -0.980700 -0.079900 -0.178400
vn -0.977400 0.022000 0.210200
vn -0.972000 -0.066800 -0.225200
vn -0.979900 0.021100 0.198100
vn -0.967200 -0.054100 -0.248200
vn -0.964000 -0.041100 -0.262500
vn -0.978900 0.016100 0.203900
vn -0.980000 0.019000 0.198200
vn -0.855400 0.065000 0.513900
vn -0.846800 0.051100 0.529400
vn -0.861300 0.076000 0.502300
vn -0.862500 0.085900 0.498700
vn 0.253800 -0.110200 -0.961000
vn -0.000000 -0.114000 -0.993500
vn 0.646800 -0.090100 -0.757300
vn 0.639100 -0.118700 -0.759900
vn 0.254800 -0.122800 -0.959200
vn 0.000000 -0.121500 -0.992600
vn 0.280100 -0.185200 -0.942000
vn 0.631300 -0.197000 -0.750100
vn -0.000000 -0.179700 -0.983700
vn -0.280100 -0.185200 -0.942000
vn -0.631300 -0.197100 -0.750100
vn -0.639200 -0.119200 -0.759700
vn -0.254700 -0.123000 -0.959200
vn -0.254400 -0.110500 -0.960800
vn -0.647000 -0.091000 -0.757000
vn 0.836100 0.029100 0.547800
vn 0.976900 0.002700 0.213500
vn 0.605300 0.044800 0.794700
vn 0.585100 -0.003800 0.811000
vn 0.820100 -0.016600 0.572000
vn 0.973200 -0.042900 0.226000
vn 0.784800 -0.098100 0.612000
vn 0.558500 -0.077800 0.825900
vn 0.961200 -0.142200 0.236300
vn 0.934800 -0.186600 -0.302300
vn 0.957000 -0.085600 -0.277200
vn 0.961700 -0.042400 -0.271000
vn -0.307900 0.051800 0.950000
vn 0.000000 0.054100 0.998500
vn -0.605300 0.043500 0.794800
vn -0.584900 -0.004300 0.811100
vn -0.296200 0.002100 0.955100
vn 0.000000 0.004200 1.000000
vn -0.297300 -0.073200 0.952000
vn -0.558500 -0.077900 0.825900
vn -0.000000 -0.073200 0.997300
vn 0.297200 -0.073100 0.952000
vn 0.296200 0.002200 0.955100
vn 0.307900 0.052100 0.950000
vn -0.961700 -0.043700 -0.270500
vn -0.976800 0.001300 0.214100
vn -0.957000 -0.086300 -0.277000
vn -0.973100 -0.043600 0.226300
vn -0.934700 -0.186800 -0.302300
vn -0.961200 -0.142400 0.236400
vn -0.784700 -0.098300 0.612000
vn -0.819900 -0.017200 0.572200
vn -0.835900 0.027800 0.548200
usemtl 959190
s 1
f 58/1/1 110/2/2 30/3/3 111/4/4
f 58/1/1 111/4/4 5/5/5 112/6/6
f 58/1/1 112/6/6 31/7/7 113/8/8
f 58/1/1 113/8/8 17/9/9 110/2/2
f 59/10/10 113/8/8 31/7/7 114/11/11
f 59/10/10 114/11/11 7/12/12 115/13/13
f 59/10/10 115/13/13 32/14/14 116/15/15
f 59/10/10 116/15/15 17/9/9 113/8/8
f 60/16/16 116/15/15 32/14/14 117/17/17
f 60/16/16 117/17/17 8/18/18 118/19/19
f 60/16/16 118/19/19 33/20/20 119/21/21
f 60/16/16 119/21/21 17/9/9 116/15/15
f 61/22/22 119/21/21 33/20/20 120/23/23
f 61/22/22 120/23/23 6/24/24 121/25/25
f 61/22/22 121/25/25 30/3/3 110/2/2
f 61/22/22 110/2/2 17/9/9 119/21/21
f 62/5/26 122/5/27 34/5/28 123/5/29
f 62/5/26 123/5/29 4/5/30 124/5/31
f 62/5/26 124/5/31 35/5/32 125/5/33
f 62/5/26 125/5/33 18/5/34 122/5/27
f 63/5/35 125/5/33 35/5/32 126/5/36
f 63/5/35 126/5/36 5/5/5 111/5/4
f 63/5/35 111/5/4 30/5/3 127/5/37
f 63/5/35 127/5/37 18/5/34 125/5/33
f 64/5/38 127/5/37 30/5/3 121/5/25
f 64/5/38 121/5/25 6/5/24 128/5/39
f 64/5/38 128/5/39 36/5/40 129/5/41
f 64/5/38 129/5/41 18/5/34 127/5/37
f 65/5/42 129/5/41 36/5/40 130/5/43
f 65/5/42 130/5/43 3/5/44 131/5/45
f 65/5/42 131/5/45 34/5/28 122/5/27
f 65/5/42 122/5/27 18/5/34 129/5/41
f 66/5/46 132/5/47 37/5/48 133/5/49
f 66/5/46 133/5/49 14/5/50 134/5/51
f 66/5/46 134/5/51 38/5/52 135/5/53
f 66/5/46 135/5/53 19/5/54 132/5/47
f 67/5/55 135/5/53 38/5/52 136/5/56
f 67/5/55 136/5/56 15/5/57 137/5/58
f 67/5/55 137/5/58 39/5/59 138/5/60
f 67/5/55 138/5/60 19/5/54 135/5/53
f 68/5/61 138/5/60 39/5/59 139/5/62
f 68/5/61 139/5/62 16/5/63 140/5/64
f 68/5/61 140/5/64 40/5/65 141/5/66
f 68/5/61 141/5/66 19/5/54 138/5/60
f 69/5/67 141/5/66 40/5/65 142/5/68
f 69/5/67 142/5/68 13/5/69 143/5/70
f 69/5/67 143/5/70 37/5/48 132/5/47
f 69/5/67 132/5/47 19/5/54 141/5/66
f 70/5/71 144/5/72 41/5/73 145/5/74
f 70/5/71 145/5/74 1/5/75 146/5/76
f 70/5/71 146/5/76 42/5/77 147/5/78
f 70/5/71 147/5/78 20/5/79 144/5/72
f 71/5/80 147/5/78 42/5/77 148/5/81
f 71/5/80 148/5/81 8/5/18 117/5/17
f 71/5/80 117/5/17 32/5/14 149/5/82
f 71/5/80 149/5/82 20/5/79 147/5/78
f 72/5/83 149/5/82 32/5/14 115/5/13
f 72/5/83 115/5/13 7/5/12 150/5/84
f 72/5/83 150/5/84 43/5/85 151/5/86
f 72/5/83 151/5/86 20/5/79 149/5/82
f 73/5/87 151/5/86 43/5/85 152/5/88
f 73/5/87 152/5/88 2/5/89 153/5/90
f 73/5/87 153/5/90 41/5/73 144/5/72
f 73/5/87 144/5/72 20/5/79 151/5/86
f 74/5/91 154/5/92 44/5/93 155/5/94
f 74/5/91 155/5/94 3/5/44 130/5/43
f 74/5/91 130/5/43 36/5/40 156/5/95
f 74/5/91 156/5/95 21/5/96 154/5/92
f 75/5/97 156/5/95 36/5/40 128/5/39
f 75/5/97 128/5/39 6/5/24 120/5/23
f 75/5/97 120/5/23 33/5/20 157/5/98
f 75/5/97 157/5/98 21/5/96 156/5/95
f 76/5/99 157/5/98 33/5/20 118/5/19
f 76/5/99 118/5/19 8/5/18 148/5/81
f 76/5/99 148/5/81 42/5/77 158/5/100
f 76/5/99 158/5/100 21/5/96 157/5/98
f 77/5/101 158/5/100 42/5/77 146/5/76
f 77/5/101 146/5/76 1/5/75 159/5/102
f 77/5/101 159/5/102 44/5/93 154/5/92
f 77/5/101 154/5/92 21/5/96 158/5/100
f 78/5/103 160/5/104 45/5/105 161/5/106
f 78/5/103 161/5/106 2/5/89 162/5/107
f 78/5/103 162/5/107 46/5/108 163/5/109
f 78/5/103 163/5/109 22/5/110 160/5/104
f 79/5/111 163/5/109 46/5/108 164/5/112
f 79/5/111 164/5/112 9/5/113 165/5/114
f 79/5/111 165/5/114 47/5/115 166/5/116
f 79/5/111 166/5/116 22/5/110 163/5/109
f 80/5/117 166/5/116 47/5/115 167/5/118
f 80/5/117 167/5/118 10/5/119 168/5/120
f 80/5/117 168/5/120 48/5/121 169/5/122
f 80/5/117 169/5/122 22/5/110 166/5/116
f 81/5/123 169/5/122 48/5/121 170/5/124
f 81/5/123 170/5/124 4/5/30 171/5/125
f 81/5/123 171/5/125 45/5/105 160/5/104
f 81/5/123 160/5/104 22/5/110 169/5/122
f 82/5/126 172/5/127 43/5/85 150/5/84
f 82/5/126 150/5/84 7/5/12 173/5/128
f 82/5/126 173/5/128 49/5/129 174/5/130
f 82/5/126 174/5/130 23/5/131 172/5/127
f 83/5/132 174/5/130 49/5/129 175/5/133
f 83/5/132 175/5/133 11/5/134 176/5/135
f 83/5/132 176/5/135 50/5/136 177/5/137
f 83/5/132 177/5/137 23/5/131 174/5/130
f 84/5/138 177/5/137 50/5/136 178/5/139
f 84/5/138 178/5/139 9/5/113 164/5/112
f 84/5/138 164/5/112 46/5/108 179/5/140
f 84/5/138 179/5/140 23/5/131 177/5/137
f 85/5/141 179/5/140 46/5/108 162/5/107
f 85/5/141 162/5/107 2/5/89 152/5/88
f 85/5/141 152/5/88 43/5/85 172/5/127
f 85/5/141 172/5/127 23/5/131 179/5/140
f 86/5/142 180/5/143 31/5/7 112/5/6
f 86/5/142 112/5/6 5/5/5 181/5/144
f 86/5/142 181/5/144 51/5/145 182/5/146
f 86/5/142 182/5/146 24/5/147 180/5/143
f 87/5/148 182/5/146 51/5/145 183/5/149
f 87/5/148 183/5/149 12/5/150 184/5/151
f 87/5/148 184/5/151 52/5/152 185/5/153
f 87/5/148 185/5/153 24/5/147 182/5/146
f 88/5/154 185/5/153 52/5/152 186/5/155
f 88/5/154 186/5/155 11/5/134 175/5/133
f 88/5/154 175/5/133 49/5/129 187/5/156
f 88/5/154 187/5/156 24/5/147 185/5/153
f 89/5/157 187/5/156 49/5/129 173/5/128
f 89/5/157 173/5/128 7/5/12 114/5/11
f 89/5/157 114/5/11 31/5/7 180/5/143
f 89/5/157 180/5/143 24/5/147 187/5/156
f 90/5/158 188/5/159 35/5/32 124/5/31
f 90/5/158 124/5/31 4/5/30 170/5/124
f 90/5/158 170/5/124 48/5/121 189/5/160
f 90/5/158 189/5/160 25/5/161 188/5/159
f 91/5/162 189/5/160 48/5/121 168/5/120
f 91/5/162 168/5/120 10/5/119 190/5/163
f 91/5/162 190/5/163 53/5/164 191/5/165
f 91/5/162 191/5/165 25/5/161 189/5/160
f 92/5/166 191/5/165 53/5/164 192/5/167
f 92/5/166 192/5/167 12/5/150 183/5/149
f 92/5/166 183/5/149 51/5/145 193/5/168
f 92/5/166 193/5/168 25/5/161 191/5/165
f 93/5/169 193/5/168 51/5/145 181/5/144
f 93/5/169 181/5/144 5/5/5 126/5/36
f 93/5/169 126/5/36 35/5/32 188/5/159
f 93/5/169 188/5/159 25/5/161 193/5/168
f 94/5/170 194/5/171 47/5/115 165/5/114
f 94/5/170 165/5/114 9/5/113 195/5/172
f 94/5/170 195/5/172 54/5/173 196/5/174
f 94/5/170 196/5/174 26/5/175 194/5/171
f 95/5/176 196/5/174 54/5/173 197/5/177
f 95/5/176 197/5/177 14/5/50 133/5/49
f 95/5/176 133/5/49 37/5/48 198/5/178
f 95/5/176 198/5/178 26/5/175 196/5/174
f 96/5/179 198/5/178 37/5/48 143/5/70
f 96/5/179 143/5/70 13/5/69 199/5/180
f 96/5/179 199/5/180 55/5/181 200/5/182
f 96/5/179 200/5/182 26/5/175 198/5/178
f 97/5/183 200/5/182 55/5/181 201/5/184
f 97/5/183 201/5/184 10/5/119 167/5/118
f 97/5/183 167/5/118 47/5/115 194/5/171
f 97/5/183 194/5/171 26/5/175 200/5/182
f 98/5/185 202/5/186 50/5/136 176/5/135
f 98/5/185 176/5/135 11/5/134 203/5/187
f 98/5/185 203/5/187 56/5/188 204/5/189
f 98/5/185 204/5/189 27/5/190 202/5/186
f 99/5/191 204/5/189 56/5/188 205/5/192
f 99/5/191 205/5/192 15/5/57 136/5/56
f 99/5/191 136/5/56 38/5/52 206/5/193
f 99/5/191 206/5/193 27/5/190 204/5/189
f 100/5/194 206/5/193 38/5/52 134/5/51
f 100/5/194 134/5/51 14/5/50 197/5/177
f 100/5/194 197/5/177 54/5/173 207/5/195
f 100/5/194 207/5/195 27/5/190 206/5/193
f 101/5/196 207/5/195 54/5/173 195/5/172
f 101/5/196 195/5/172 9/5/113 178/5/139
f 101/5/196 178/5/139 50/5/136 202/5/186
f 101/5/196 202/5/186 27/5/190 207/5/195
f 102/5/197 208/5/198 52/5/152 184/5/151
f 102/5/197 184/5/151 12/5/150 209/5/199
f 102/5/197 209/5/199 57/5/200 210/5/201
f 102/5/197 210/5/201 28/5/202 208/5/198
f 103/5/203 210/5/201 57/5/200 211/5/204
f 103/5/203 211/5/204 16/5/63 139/5/62
f 103/5/203 139/5/62 39/5/59 212/5/205
f 103/5/203 212/5/205 28/5/202 210/5/201
f 104/5/206 212/5/205 39/5/59 137/5/58
f 104/5/206 137/5/58 15/5/57 205/5/192
f 104/5/206 205/5/192 56/5/188 213/5/207
f 104/5/206 213/5/207 28/5/202 212/5/205
f 105/5/208 213/5/207 56/5/188 203/5/187
f 105/5/208 203/5/187 11/5/134 186/5/155
f 105/5/208 186/5/155 52/5/152 208/5/198
f 105/5/208 208/5/198 28/5/202 213/5/207
f 106/5/209 214/5/210 53/5/164 190/5/163
f 106/5/209 190/5/163 10/5/119 201/5/184
f 106/5/209 201/5/184 55/5/181 215/5/211
f 106/5/209 215/5/211 29/5/212 214/5/210
f 107/5/213 215/5/211 55/5/181 199/5/180
f 107/5/213 199/5/180 13/5/69 142/5/68
f 107/5/213 142/5/68 40/5/65 216/5/214
f 107/5/213 216/5/214 29/5/212 215/5/211
f 108/5/215 216/5/214 40/5/65 140/5/64
f 108/5/215 140/5/64 16/5/63 211/5/204
f 108/5/215 211/5/204 57/5/200 217/5/216
f 108/5/215 217/5/216 29/5/212 216/5/214
f 109/5/217 217/5/216 57/5/200 209/5/199
f 109/5/217 209/5/199 12/5/150 192/5/167
f 109/5/217 192/5/167 53/5/164 214/5/210
f 109/5/217 214/5/210 29/5/212 217/5/216
