# Blender v2.74 (sub 0) OBJ File: ''
# www.blender.org
mtllib monkey-character.mtl
o Box
v -0.913641 8.791014 -0.471041
v -0.710167 8.550406 -0.471041
v -0.826623 8.568508 -0.471041
v -0.829030 8.695595 -0.471041
v 0.497877 4.561221 -0.471041
v -0.499341 4.561221 -0.471041
v -0.638643 8.341579 -0.471041
v 0.389597 8.367348 -0.471041
v -0.381993 8.271914 -0.471041
v 0.500000 2.273103 -0.471041
v -0.500000 2.273103 -0.471041
v 0.365284 10.293560 -0.471041
v -0.628942 10.198127 -0.471041
v -0.500000 7.454667 -0.471041
v -0.500000 6.550100 -0.471041
v 0.500000 7.550100 -0.471041
v 0.500000 6.550100 -0.471041
v -0.713118 8.755991 -0.471041
v -0.750746 9.307817 -0.471041
v -0.724350 9.548965 -0.471041
v 0.500000 7.550100 0.492861
v 0.500000 6.550100 0.608098
v -0.500000 7.454667 0.492861
v -0.500000 6.550100 0.608098
v -0.293379 6.746146 1.309213
v -0.293379 7.354053 1.194159
v 0.293379 6.746146 1.309213
v 0.293379 7.354053 1.194159
v 0.474191 4.619245 1.048333
v -0.464054 4.619245 1.048333
v 0.280330 4.865876 1.625244
v -0.270193 4.865876 1.625244
v -0.464054 2.631181 1.168540
v 0.474191 2.631181 1.168540
v 0.280330 2.877812 1.662272
v -0.270193 2.877812 1.662272
v -0.381993 8.271914 -0.094406
v 0.389597 8.367348 -0.094406
v -0.628942 10.147984 -0.124565
v 0.365284 10.243417 -0.124565
v 0.389597 8.738779 0.389618
v -0.227692 8.753010 0.389618
v 0.365284 9.672521 0.372783
v -0.252006 9.686751 0.372783
v -0.477410 4.561221 0.493355
v 0.427181 4.561221 0.493355
v -0.500000 2.273103 0.608098
v 0.500000 2.273103 0.608098
v -0.725220 9.559916 -0.118035
v -0.721443 9.304565 -0.113350
v -0.724081 9.523804 -0.188243
v -0.722365 9.321459 -0.184579
v -0.571692 9.333807 -0.199032
v -0.573408 9.508414 -0.202225
v -0.573067 9.510004 -0.389860
v -0.571464 9.335282 -0.389619
v -0.712805 8.720522 -0.102636
v -0.710394 8.557465 -0.099645
v -0.712754 8.719979 -0.184590
v -0.710343 8.555883 -0.182841
v -0.829193 8.696895 -0.308441
v -0.826782 8.572265 -0.307340
v -0.712669 8.719086 -0.319629
v -0.713739 8.793380 -0.327865
v -0.913718 8.790496 -0.328035
v -0.638695 8.343060 -0.095712
v -0.092880 9.050597 0.388311
v 0.247723 9.042562 0.388374
v 0.230472 9.483449 0.374090
v -0.110132 9.491484 0.374027
v -0.129007 9.020136 0.588206
v 0.287949 9.010730 0.588269
v 0.266831 9.526872 0.573985
v -0.150125 9.536278 0.573922
v 0.500000 7.550100 -1.434944
v 0.500000 6.550100 -1.550181
v -0.500000 7.454667 -1.434944
v -0.500000 6.550100 -1.550181
v -0.293379 6.746146 -2.251295
v -0.293379 7.354053 -2.136241
v 0.293379 6.746146 -2.251295
v 0.293379 7.354053 -2.136241
v 0.474191 4.619245 -1.990415
v -0.464054 4.619245 -1.990415
v 0.280330 4.865876 -2.567327
v -0.270193 4.865876 -2.567327
v -0.464054 2.631181 -2.110622
v 0.474191 2.631181 -2.110622
v 0.280330 2.877812 -2.604355
v -0.270193 2.877812 -2.604355
v -0.381993 8.271914 -0.847676
v 0.389597 8.367348 -0.847676
v -0.628942 10.147984 -0.817518
v 0.365284 10.243417 -0.817518
v 0.389597 8.738779 -1.331700
v -0.227692 8.753010 -1.331700
v 0.365284 9.672521 -1.314866
v -0.252006 9.686751 -1.314866
v -0.477410 4.561221 -1.435437
v 0.427181 4.561221 -1.435437
v -0.500000 2.273103 -1.550181
v 0.500000 2.273103 -1.550181
v -0.725220 9.559916 -0.824048
v -0.721443 9.304565 -0.828732
v -0.724081 9.523804 -0.753840
v -0.722365 9.321459 -0.757504
v -0.571692 9.333807 -0.743050
v -0.573408 9.508414 -0.739857
v -0.573067 9.510004 -0.552223
v -0.571464 9.335282 -0.552463
v -0.712805 8.720522 -0.839446
v -0.710394 8.557465 -0.842438
v -0.712754 8.719979 -0.757492
v -0.710343 8.555883 -0.759242
v -0.829193 8.696895 -0.633641
v -0.826782 8.572265 -0.634742
v -0.712669 8.719086 -0.622453
v -0.713739 8.793380 -0.614217
v -0.913718 8.790496 -0.614048
v -0.638695 8.343060 -0.846371
v -0.092880 9.050597 -1.330394
v 0.247723 9.042562 -1.330456
v 0.230472 9.483449 -1.316172
v -0.110132 9.491484 -1.316110
v -0.129007 9.020136 -1.530289
v 0.287949 9.010730 -1.530351
v 0.266831 9.526872 -1.516067
v -0.150125 9.536278 -1.516005
vt 0.000000 1.000000
vt 0.000000 0.000000
vt 0.973866 0.000000
vt 0.970833 1.000000
vt 0.000000 0.026134
vt 1.000000 0.026134
vt 1.000000 1.000000
vt 1.000000 0.000000
vt 0.026134 0.000000
vt 0.029167 1.000000
vt 0.000000 0.991229
vt 1.000000 0.991229
vn 1.000000 0.000000 0.000000
vn 0.000000 -1.000000 0.000000
vn 0.000000 -0.000000 1.000000
vn -1.000000 -0.000000 0.000000
vn 0.000000 1.000000 0.000000
vn -0.000000 -0.269300 -0.963100
vn 0.962000 0.073500 0.262900
vn 0.962000 0.073500 0.263000
vn -0.000000 0.269300 0.963100
vn -0.962000 0.073500 0.262900
vn -0.962000 0.073500 0.263000
vn -0.000000 -0.393100 -0.919500
vn 0.955400 0.116100 0.271400
vn 0.955400 0.116000 0.271400
vn -0.000000 0.393100 0.919500
vn -0.955400 0.116000 0.271400
vn -0.955400 0.116100 0.271400
vn 0.992600 0.121600 -0.000000
vn 0.992600 0.121500 -0.000000
vn 0.121600 -0.992600 -0.000000
vn 0.121500 -0.992600 0.000000
vn 0.999600 0.027700 -0.000000
vn -0.121600 0.992600 0.000000
vn -0.999600 -0.027800 0.000000
vn -0.999600 -0.027700 -0.000000
vn -0.999600 -0.027600 0.000000
vn -1.000000 0.000100 -0.000000
vn -0.992600 -0.121600 0.000000
vn -0.992600 -0.121500 -0.000000
vn -0.999900 -0.014700 -0.001300
vn -0.999900 -0.014700 -0.001500
vn -0.999900 -0.014600 -0.001600
vn -0.001600 0.018100 0.999800
vn -0.001500 0.018100 0.999800
vn -0.008200 0.999900 0.008600
vn -0.008300 0.999900 0.008500
vn 0.001300 -0.001400 -1.000000
vn 0.001400 -0.001300 -1.000000
vn 0.001400 -0.001400 -1.000000
vn 0.008200 -0.999900 -0.007800
vn 0.008300 -0.999900 -0.007800
vn -0.014500 0.999900 -0.006600
vn -0.000600 0.010700 0.999900
vn -0.000600 0.010600 0.999900
vn -0.002400 0.110200 0.993900
vn 0.000400 0.018000 0.999800
vn 0.000500 0.018000 0.999800
vn -0.023600 -0.999200 0.032400
vn 0.999200 0.039000 -0.001900
vn 0.999200 0.039000 -0.001800
vn 0.999200 0.039100 -0.001900
vn 0.023600 0.999200 -0.032400
vn -0.999200 -0.039000 0.001900
vn -0.999200 -0.039000 0.001800
vn -0.999900 -0.014600 -0.001200
vn 0.014500 -0.999700 0.019000
vn 0.014400 -0.999900 -0.003600
vn 0.000000 -0.000000 -1.000000
vn -0.000000 -0.269300 0.963100
vn 0.962000 0.073500 -0.262900
vn 0.962000 0.073500 -0.263000
vn 0.000000 0.269300 -0.963100
vn -0.962000 0.073500 -0.262900
vn -0.962000 0.073500 -0.263000
vn 0.000000 -0.393100 0.919500
vn 0.955400 0.116000 -0.271400
vn 0.955400 0.116100 -0.271400
vn 0.000000 0.393100 -0.919500
vn -0.955400 0.116100 -0.271400
vn -0.955400 0.116000 -0.271400
vn -0.999600 -0.027900 -0.000000
vn -0.999900 -0.014700 0.001300
vn -0.999900 -0.014700 0.001500
vn -0.999900 -0.014600 0.001600
vn -0.001500 0.018100 -0.999800
vn -0.001600 0.018100 -0.999800
vn -0.008300 0.999900 -0.008500
vn -0.008200 0.999900 -0.008600
vn 0.001400 -0.001400 1.000000
vn 0.001400 -0.001300 1.000000
vn 0.001300 -0.001400 1.000000
vn 0.008300 -0.999900 0.007800
vn 0.008200 -0.999900 0.007800
vn -0.014500 0.999900 0.006600
vn -0.000600 0.010600 -0.999900
vn -0.000600 0.010700 -0.999900
vn -0.002400 0.110200 -0.993900
vn 0.000400 0.018000 -0.999800
vn 0.000500 0.018000 -0.999800
vn -0.023600 -0.999200 -0.032400
vn 0.999200 0.039100 0.001900
vn 0.999200 0.039000 0.001800
vn 0.999200 0.039000 0.001900
vn 0.023600 0.999200 0.032400
vn -0.999200 -0.039000 -0.001800
vn -0.999200 -0.039000 -0.001900
vn -0.999900 -0.014600 0.001200
vn 0.014500 -0.999700 -0.019000
vn 0.014400 -0.999900 0.003600
usemtl b0b0b0
s 1
f 21/1/1 22/2/1 17/3/1 16/4/1
f 47/1/2 11/5/2 10/6/2 48/7/2
f 26/1/3 25/2/3 27/8/3 28/7/3
f 23/2/4 24/2/4 25/2/4 26/2/4
f 33/2/2 34/2/2 35/2/2 36/2/2
f 22/2/1 21/2/1 28/2/1 27/2/1
f 21/2/5 23/2/5 26/2/5 28/2/5
f 24/2/6 22/2/6 29/2/6 30/2/6
f 22/2/7 27/2/8 31/2/8 29/2/7
f 27/2/9 25/2/9 32/2/9 31/2/9
f 25/2/10 24/2/10 30/2/11 32/2/10
f 30/2/12 29/2/12 34/2/12 33/2/12
f 29/2/13 31/2/14 35/2/13 34/2/14
f 31/2/15 32/2/15 36/2/15 35/2/15
f 32/2/16 30/2/17 33/2/16 36/2/17
f 23/2/3 21/2/3 38/2/3 37/2/3
f 21/2/1 16/2/1 8/2/1 38/2/1
f 71/2/3 72/2/3 73/2/3 74/2/3
f 38/2/18 8/2/19 12/2/19 40/2/18
f 37/2/20 38/2/20 41/2/21 42/2/20
f 38/2/22 40/2/22 43/2/22 41/2/22
f 40/2/23 39/2/23 44/2/23 43/2/23
f 39/2/24 49/2/25 50/2/25 57/2/26 58/2/25 66/2/25 37/2/25 42/2/24 44/2/25
f 24/2/4 15/2/4 6/2/27 45/2/4
f 22/2/3 24/2/3 45/2/3 46/2/3
f 45/2/4 6/2/27 11/2/4 47/2/4
f 46/2/3 45/2/3 47/2/3 48/2/3
f 49/2/28 39/2/28 13/2/28 20/2/28
f 53/2/28 54/2/29 55/2/28 56/2/29
f 50/2/30 49/2/31 51/2/31 52/2/30
f 49/2/31 20/2/32 51/2/31
f 52/2/33 51/2/34 54/2/33 53/2/34
f 51/2/35 20/2/35 55/2/36 54/2/36
f 20/2/37 19/2/37 56/2/38 55/2/39
f 19/2/40 52/2/40 53/2/41 56/2/41
f 57/2/28 50/2/28 19/2/28 64/2/28 63/2/28 59/2/29
f 58/2/29 57/2/28 59/2/29 60/2/28
f 61/2/28 4/2/28 3/2/28 62/2/28
f 59/2/42 63/2/42 18/2/42 4/2/42 61/2/42
f 60/2/43 59/2/44 61/2/44 62/2/44
f 19/2/28 1/2/29 65/2/28
f 64/2/45 19/2/45 65/2/45
f 66/2/28 58/2/29 60/2/28 2/2/28 7/2/28
f 42/2/46 41/2/46 68/2/46 67/2/46
f 41/2/46 43/2/46 69/2/47 68/2/46
f 43/2/46 44/2/46 70/2/46 69/2/47
f 44/2/46 42/2/46 67/2/46 70/2/46
f 67/2/48 68/2/48 72/2/48 71/2/48
f 68/2/49 69/2/49 73/2/50 72/2/51
f 69/2/52 70/2/52 74/2/52 73/2/52
f 70/2/53 67/2/53 71/2/53 74/2/54
f 15/9/4 24/8/4 23/7/4 14/10/4
f 13/11/5 39/2/5 40/8/5 12/12/5
f 14/2/4 23/2/4 37/2/4 9/2/4
f 9/2/28 37/2/28 66/2/28 7/2/28
f 17/2/1 22/2/1 46/2/1 5/2/1
f 5/2/1 46/2/1 48/2/1 10/2/1
f 19/2/55 50/2/30 52/2/30
f 2/2/56 60/2/56 62/2/56 3/2/56
f 18/2/28 63/2/28 64/2/28
f 18/2/57 64/2/57 65/2/57 1/2/57
f 16/4/1 17/3/1 76/2/1 75/1/1
f 102/7/2 10/6/2 11/5/2 101/1/2
f 82/7/58 81/8/58 79/2/58 80/1/58
f 80/2/4 79/2/4 78/2/4 77/2/4
f 90/2/2 89/2/2 88/2/2 87/2/2
f 81/2/1 82/2/1 75/2/1 76/2/1
f 82/2/5 80/2/5 77/2/5 75/2/5
f 84/2/59 83/2/59 76/2/59 78/2/59
f 83/2/60 85/2/61 81/2/61 76/2/60
f 85/2/62 86/2/62 79/2/62 81/2/62
f 86/2/63 84/2/64 78/2/63 79/2/63
f 87/2/65 88/2/65 83/2/65 84/2/65
f 88/2/66 89/2/67 85/2/66 83/2/67
f 89/2/68 90/2/68 86/2/68 85/2/68
f 90/2/69 87/2/70 84/2/69 86/2/70
f 91/2/58 92/2/58 75/2/58 77/2/58
f 92/2/1 8/2/1 16/2/1 75/2/1
f 128/2/58 127/2/58 126/2/58 125/2/58
f 94/2/18 12/2/19 8/2/19 92/2/18
f 96/2/20 95/2/21 92/2/20 91/2/20
f 95/2/22 97/2/22 94/2/22 92/2/22
f 97/2/23 98/2/23 93/2/23 94/2/23
f 98/2/25 96/2/24 91/2/25 120/2/25 112/2/25 111/2/71 104/2/25 103/2/25 93/2/24
f 99/2/4 6/2/27 15/2/4 78/2/4
f 100/2/58 99/2/58 78/2/58 76/2/58
f 101/2/4 11/2/4 6/2/27 99/2/4
f 102/2/58 101/2/58 99/2/58 100/2/58
f 20/2/28 13/2/28 93/2/28 103/2/28
f 110/2/29 109/2/28 108/2/29 107/2/28
f 106/2/72 105/2/73 103/2/73 104/2/72
f 105/2/73 20/2/74 103/2/73
f 107/2/75 108/2/76 105/2/75 106/2/76
f 108/2/77 109/2/77 20/2/78 105/2/78
f 109/2/79 110/2/80 19/2/81 20/2/81
f 110/2/82 107/2/82 106/2/83 19/2/83
f 113/2/29 117/2/28 118/2/28 19/2/28 104/2/28 111/2/28
f 114/2/28 113/2/29 111/2/28 112/2/29
f 116/2/28 3/2/28 4/2/28 115/2/28
f 115/2/84 4/2/84 18/2/84 117/2/84 113/2/84
f 116/2/85 115/2/85 113/2/85 114/2/86
f 119/2/28 1/2/29 19/2/28
f 119/2/87 19/2/87 118/2/87
f 7/2/28 2/2/28 114/2/28 112/2/29 120/2/28
f 121/2/88 122/2/88 95/2/88 96/2/88
f 122/2/88 123/2/89 97/2/88 95/2/88
f 123/2/89 124/2/88 98/2/88 97/2/88
f 124/2/88 121/2/88 96/2/88 98/2/88
f 125/2/90 126/2/90 122/2/90 121/2/90
f 126/2/91 127/2/92 123/2/93 122/2/93
f 127/2/94 128/2/94 124/2/94 123/2/94
f 128/2/95 125/2/96 121/2/96 124/2/96
f 14/10/4 77/7/4 78/8/4 15/9/4
f 12/12/5 94/8/5 93/2/5 13/11/5
f 9/2/4 91/2/4 77/2/4 14/2/4
f 7/2/28 120/2/28 91/2/28 9/2/28
f 5/2/1 100/2/1 76/2/1 17/2/1
f 10/2/1 102/2/1 100/2/1 5/2/1
f 19/2/97 106/2/72 104/2/72
f 3/2/98 116/2/98 114/2/98 2/2/98
f 18/2/28 118/2/28 117/2/28
f 1/2/99 119/2/99 118/2/99 18/2/99
