# Blender v2.74 (sub 0) OBJ File: ''
# www.blender.org
mtllib player.mtl
o Box
v 0.350000 3.671800 0.500000
v 0.350000 3.671800 -0.500000
v 0.350000 3.005133 0.500000
v 0.350000 3.005133 -0.500000
v 0.350000 2.338467 0.500000
v 0.350000 2.338467 -0.500000
v 0.350000 1.671800 0.500000
v 0.350000 1.671800 -0.500000
v -0.350000 3.671800 -0.500000
v -0.350000 3.671800 0.500000
v -0.350000 3.005133 -0.500000
v -0.350000 3.005133 0.500000
v -0.350000 2.338467 -0.500000
v -0.350000 2.338467 0.500000
v -0.350000 1.671800 -0.500000
v -0.350000 1.671800 0.500000
v -0.300503 3.146554 0.500000
v -0.300503 3.530379 0.500000
v 0.300503 3.146554 0.500000
v 0.300503 3.530379 0.500000
v -0.300503 3.530379 1.378266
v -0.300503 3.146554 1.378266
v 0.300503 3.146554 1.378266
v 0.300503 3.530379 1.378266
v -0.300503 3.530379 2.221826
v -0.300503 3.146554 2.221826
v 0.300503 3.146554 2.221826
v 0.300503 3.530379 2.221826
v -0.350000 1.671800 -0.007401
v 0.350000 1.671800 -0.018339
v -0.300503 1.671800 -0.429289
v -0.300774 1.671800 -0.078498
v 0.300503 1.671800 -0.429289
v 0.300233 1.671800 -0.088662
v -0.300774 0.831550 -0.078498
v -0.300503 0.831550 -0.429289
v 0.300503 0.831550 -0.429289
v 0.300233 0.831550 -0.088662
v -0.300774 0.000094 -0.078498
v -0.300503 0.000094 -0.429289
v 0.300503 0.000094 -0.429289
v 0.300233 0.000094 -0.088662
v -0.300233 1.671800 0.062922
v -0.300503 1.671800 0.429289
v 0.300774 1.671800 0.052757
v 0.300503 1.671800 0.429289
v -0.300503 0.831777 0.429289
v -0.300233 0.831777 0.062922
v 0.300774 0.831777 0.052757
v 0.300503 0.831777 0.429289
v -0.300503 0.000382 0.429289
v -0.300233 0.000382 0.062922
v 0.300774 0.000382 0.052757
v 0.300503 0.000382 0.429289
v 0.300503 3.146554 -0.500000
v 0.300503 3.530379 -0.500000
v -0.300503 3.146554 -0.500000
v -0.300503 3.530379 -0.500000
v 0.300503 3.530379 -1.379706
v 0.300503 3.146554 -1.379706
v -0.300503 3.146554 -1.379706
v -0.300503 3.530379 -1.379706
v 0.300503 3.530379 -2.224820
v 0.300503 3.146554 -2.224820
v -0.300503 3.146554 -2.224820
v -0.300503 3.530379 -2.224820
v -0.300503 3.671800 0.429289
v -0.300503 3.671800 -0.429289
v 0.300503 3.671800 0.429289
v 0.300503 3.671800 -0.429289
v -0.251005 3.671800 -0.358579
v -0.251005 3.671800 0.358579
v 0.251005 3.671800 0.358579
v 0.251005 3.671800 -0.358579
v -0.201508 3.671800 -0.287868
v -0.201508 3.671800 0.287868
v 0.201508 3.671800 0.287868
v 0.201508 3.671800 -0.287868
v -0.152010 3.671800 -0.217157
v -0.152010 3.671800 0.217157
v 0.152010 3.671800 0.217157
v 0.152010 3.671800 -0.217157
v -0.102513 4.029752 -0.146447
v -0.102513 4.029752 0.146447
v 0.102513 4.029752 0.146447
v 0.102513 4.029752 -0.146447
v -0.053015 4.029752 -0.445433
v -0.053015 4.029752 0.472264
v 0.053015 4.029752 0.472264
v 0.053015 4.029752 -0.445433
v -0.053015 4.783707 -0.445433
v -0.053015 4.783707 0.472264
v 0.053015 4.783707 0.472264
v 0.053015 4.783707 -0.445433
v -0.268684 4.171173 0.401553
v -0.268684 4.171173 -0.374722
v -0.268684 4.543100 0.401553
v -0.268684 4.543100 -0.374722
v 0.274185 4.171173 -0.374722
v 0.274185 4.171173 0.401553
v 0.274185 4.642285 -0.374722
v 0.274185 4.642285 0.401553
vt 0.000000 1.000000
vt 0.000000 0.666667
vt 1.000000 0.666667
vt 1.000000 1.000000
vt 0.000000 0.333333
vt 1.000000 0.333333
vt 0.000000 0.000000
vt 0.518339 0.000000
vt 1.000000 0.000000
vt 0.492599 0.000000
vt 0.000000 0.492599
vt 1.000000 0.481661
vn 1.000000 0.000000 0.000000
vn -1.000000 0.000000 0.000000
vn 0.000000 1.000000 0.000000
vn 0.000000 -1.000000 0.000000
vn 0.000000 0.000000 1.000000
vn 0.000000 0.000000 -1.000000
vn -1.000000 0.000000 -0.000800
vn 1.000000 0.000000 0.000800
vn 0.016900 0.000000 0.999900
vn -1.000000 0.000000 -0.000700
vn -0.016900 0.000000 -0.999900
vn 1.000000 0.000000 0.000700
vn -0.063000 0.995800 0.065800
vn -0.098400 0.994500 -0.036600
vn 0.057800 0.995800 0.071100
vn 0.063000 0.995800 -0.065800
vn -0.128600 0.990700 0.044300
vn -0.112300 0.991900 -0.060100
vn 0.067300 0.992000 0.106700
vn 0.128700 0.990700 -0.044500
vn -0.986700 0.162000 -0.010700
vn -0.994000 0.096500 -0.050800
vn -0.977300 -0.210200 0.027900
vn -0.990200 -0.135900 0.032000
vn 0.987200 0.159400 0.010800
vn 0.994300 0.094300 0.050300
vn 0.987200 -0.159400 -0.010800
vn 0.994300 -0.094300 -0.050300
vn -0.967200 0.153500 0.202300
vn -0.967200 0.153500 -0.202300
vn -0.943900 -0.202700 -0.260700
vn -0.943900 -0.202700 0.260700
vn 0.968100 0.151600 -0.199700
vn 0.968100 0.151500 0.199700
vn 0.968100 -0.151500 0.199700
vn 0.968100 -0.151600 -0.199700
usemtl b0b0b0
s 1
f 1/1/1 3/2/1 4/3/1 2/4/1
f 3/2/1 5/5/1 6/6/1 4/3/1
f 5/5/1 7/7/1 30/8/1 8/9/1 6/6/1
f 9/1/2 11/2/2 12/3/2 10/4/2
f 11/2/2 13/5/2 14/6/2 12/3/2
f 13/5/2 15/7/2 29/10/2 16/9/2 14/6/2
f 91/1/3 92/7/3 93/9/3 94/4/3
f 51/1/4 52/11/4 53/12/4 54/4/4
f 25/1/5 26/2/5 27/3/5 28/4/5
f 12/2/5 14/5/5 5/6/5 3/3/5
f 14/5/5 16/7/5 7/9/5 5/6/5
f 63/1/6 64/2/6 65/3/6 66/4/6
f 4/2/6 6/5/6 13/6/6 11/3/6
f 6/5/6 8/7/6 15/9/6 13/6/6
f 10/7/5 12/7/5 17/7/5 18/7/5
f 12/7/5 3/7/5 19/7/5 17/7/5
f 3/7/5 1/7/5 20/7/5 19/7/5
f 1/7/5 10/7/5 18/7/5 20/7/5
f 18/7/2 17/7/2 22/7/2 21/7/2
f 17/7/4 19/7/4 23/7/4 22/7/4
f 19/7/1 20/7/1 24/7/1 23/7/1
f 20/7/3 18/7/3 21/7/3 24/7/3
f 21/7/2 22/7/2 26/7/2 25/7/2
f 22/7/4 23/7/4 27/7/4 26/7/4
f 23/7/1 24/7/1 28/7/1 27/7/1
f 24/7/3 21/7/3 25/7/3 28/7/3
f 39/11/4 40/7/4 41/9/4 42/12/4
f 29/7/4 15/7/4 31/7/4 32/7/4
f 15/7/4 8/7/4 33/7/4 31/7/4
f 8/7/4 30/7/4 34/7/4 33/7/4
f 30/7/4 29/7/4 32/7/4 34/7/4
f 32/7/7 31/7/7 36/7/7 35/7/7
f 31/7/6 33/7/6 37/7/6 36/7/6
f 33/7/8 34/7/8 38/7/8 37/7/8
f 34/7/9 32/7/9 35/7/9 38/7/9
f 35/7/7 36/7/7 40/7/7 39/7/7
f 36/7/6 37/7/6 41/7/6 40/7/6
f 37/7/8 38/7/8 42/7/8 41/7/8
f 38/7/9 35/7/9 39/7/9 42/7/9
f 16/7/4 29/7/4 43/7/4 44/7/4
f 29/7/4 30/7/4 45/7/4 43/7/4
f 30/7/4 7/7/4 46/7/4 45/7/4
f 7/7/4 16/7/4 44/7/4 46/7/4
f 44/7/10 43/7/10 48/7/10 47/7/10
f 43/7/11 45/7/11 49/7/11 48/7/11
f 45/7/12 46/7/12 50/7/12 49/7/12
f 46/7/5 44/7/5 47/7/5 50/7/5
f 47/7/10 48/7/10 52/7/10 51/7/10
f 48/7/11 49/7/11 53/7/11 52/7/11
f 49/7/12 50/7/12 54/7/12 53/7/12
f 50/7/5 47/7/5 51/7/5 54/7/5
f 2/7/6 4/7/6 55/7/6 56/7/6
f 4/7/6 11/7/6 57/7/6 55/7/6
f 11/7/6 9/7/6 58/7/6 57/7/6
f 9/7/6 2/7/6 56/7/6 58/7/6
f 56/7/1 55/7/1 60/7/1 59/7/1
f 55/7/4 57/7/4 61/7/4 60/7/4
f 57/7/2 58/7/2 62/7/2 61/7/2
f 58/7/3 56/7/3 59/7/3 62/7/3
f 59/7/1 60/7/1 64/7/1 63/7/1
f 60/7/4 61/7/4 65/7/4 64/7/4
f 61/7/2 62/7/2 66/7/2 65/7/2
f 62/7/3 59/7/3 63/7/3 66/7/3
f 9/7/3 10/7/3 67/7/3 68/7/3
f 10/7/3 1/7/3 69/7/3 67/7/3
f 1/7/3 2/7/3 70/7/3 69/7/3
f 2/7/3 9/7/3 68/7/3 70/7/3
f 68/7/3 67/7/3 72/7/3 71/7/3
f 67/7/3 69/7/3 73/7/3 72/7/3
f 69/7/3 70/7/3 74/7/3 73/7/3
f 70/7/3 68/7/3 71/7/3 74/7/3
f 71/7/3 72/7/3 76/7/3 75/7/3
f 72/7/3 73/7/3 77/7/3 76/7/3
f 73/7/3 74/7/3 78/7/3 77/7/3
f 74/7/3 71/7/3 75/7/3 78/7/3
f 75/7/3 76/7/3 80/7/13 79/7/14
f 76/7/3 77/7/3 81/7/15 80/7/13
f 77/7/3 78/7/3 82/7/16 81/7/15
f 78/7/3 75/7/3 79/7/14 82/7/16
f 79/7/14 80/7/13 84/7/17 83/7/18
f 80/7/13 81/7/15 85/7/19 84/7/17
f 81/7/15 82/7/16 86/7/20 85/7/19
f 82/7/16 79/7/14 83/7/18 86/7/20
f 83/7/18 84/7/17 88/7/3 87/7/3
f 84/7/17 85/7/19 89/7/3 88/7/3
f 85/7/19 86/7/20 90/7/3 89/7/3
f 86/7/20 83/7/18 87/7/3 90/7/3
f 96/7/21 95/7/22 97/7/23 98/7/24
f 88/7/5 89/7/5 93/7/5 92/7/5
f 100/7/25 99/7/26 101/7/27 102/7/28
f 90/7/6 87/7/6 91/7/6 94/7/6
f 87/7/29 88/7/30 95/7/22 96/7/21
f 88/7/30 92/7/31 97/7/23 95/7/22
f 92/7/31 91/7/32 98/7/24 97/7/23
f 91/7/32 87/7/29 96/7/21 98/7/24
f 89/7/33 90/7/34 99/7/26 100/7/25
f 90/7/34 94/7/35 101/7/27 99/7/26
f 94/7/35 93/7/36 102/7/28 101/7/27
f 93/7/36 89/7/33 100/7/25 102/7/28
